<svg width="32" height="32" viewBox="0 0 32 32" fill="none" xmlns="http://www.w3.org/2000/svg">
  <circle cx="16" cy="16" r="16" fill="#1E40AF"/>
  <path d="M22.5 9.5C22.5 9.5 20.5 7.5 17.5 7.5C14.5 7.5 12 10 12 13C12 14.5 12.5 15.5 13.5 16.5L10 21L11 22L15.5 18.5C16.5 19.5 17.5 20 19 20C22 20 24.5 17.5 24.5 14.5C24.5 11.5 22.5 9.5 22.5 9.5ZM19 14C18.2 14 17.5 13.3 17.5 12.5C17.5 11.7 18.2 11 19 11C19.8 11 20.5 11.7 20.5 12.5C20.5 13.3 19.8 14 19 14Z" fill="white"/>
  <path d="M10.5 21.5L8 24C8 24 9 25 10 24L12.5 21.5L10.5 21.5Z" fill="#F87171"/>
</svg>
